<svg xmlns="http://www.w3.org/2000/svg" width="392" height="392" viewBox="0 0 392 392" shape-rendering="crispEdges"><rect width="392" height="392" fill="#ffffff"/><path d="M32 32h8v8h-8zM40 32h8v8h-8zM48 32h8v8h-8zM56 32h8v8h-8zM64 32h8v8h-8zM72 32h8v8h-8zM80 32h8v8h-8zM96 32h8v8h-8zM144 32h8v8h-8zM192 32h8v8h-8zM200 32h8v8h-8zM216 32h8v8h-8zM224 32h8v8h-8zM232 32h8v8h-8zM240 32h8v8h-8zM248 32h8v8h-8zM256 32h8v8h-8zM304 32h8v8h-8zM312 32h8v8h-8zM320 32h8v8h-8zM328 32h8v8h-8zM336 32h8v8h-8zM344 32h8v8h-8zM352 32h8v8h-8zM32 40h8v8h-8zM80 40h8v8h-8zM104 40h8v8h-8zM128 40h8v8h-8zM136 40h8v8h-8zM144 40h8v8h-8zM152 40h8v8h-8zM160 40h8v8h-8zM176 40h8v8h-8zM184 40h8v8h-8zM200 40h8v8h-8zM208 40h8v8h-8zM224 40h8v8h-8zM232 40h8v8h-8zM240 40h8v8h-8zM256 40h8v8h-8zM264 40h8v8h-8zM272 40h8v8h-8zM280 40h8v8h-8zM288 40h8v8h-8zM304 40h8v8h-8zM352 40h8v8h-8zM32 48h8v8h-8zM48 48h8v8h-8zM56 48h8v8h-8zM64 48h8v8h-8zM80 48h8v8h-8zM104 48h8v8h-8zM112 48h8v8h-8zM128 48h8v8h-8zM136 48h8v8h-8zM160 48h8v8h-8zM168 48h8v8h-8zM176 48h8v8h-8zM192 48h8v8h-8zM208 48h8v8h-8zM216 48h8v8h-8zM240 48h8v8h-8zM248 48h8v8h-8zM264 48h8v8h-8zM272 48h8v8h-8zM280 48h8v8h-8zM288 48h8v8h-8zM304 48h8v8h-8zM320 48h8v8h-8zM328 48h8v8h-8zM336 48h8v8h-8zM352 48h8v8h-8zM32 56h8v8h-8zM48 56h8v8h-8zM56 56h8v8h-8zM64 56h8v8h-8zM80 56h8v8h-8zM96 56h8v8h-8zM128 56h8v8h-8zM160 56h8v8h-8zM168 56h8v8h-8zM200 56h8v8h-8zM216 56h8v8h-8zM248 56h8v8h-8zM264 56h8v8h-8zM272 56h8v8h-8zM280 56h8v8h-8zM288 56h8v8h-8zM304 56h8v8h-8zM320 56h8v8h-8zM328 56h8v8h-8zM336 56h8v8h-8zM352 56h8v8h-8zM32 64h8v8h-8zM48 64h8v8h-8zM56 64h8v8h-8zM64 64h8v8h-8zM80 64h8v8h-8zM96 64h8v8h-8zM128 64h8v8h-8zM136 64h8v8h-8zM152 64h8v8h-8zM160 64h8v8h-8zM168 64h8v8h-8zM184 64h8v8h-8zM200 64h8v8h-8zM216 64h8v8h-8zM224 64h8v8h-8zM232 64h8v8h-8zM248 64h8v8h-8zM256 64h8v8h-8zM272 64h8v8h-8zM304 64h8v8h-8zM320 64h8v8h-8zM328 64h8v8h-8zM336 64h8v8h-8zM352 64h8v8h-8zM32 72h8v8h-8zM80 72h8v8h-8zM96 72h8v8h-8zM104 72h8v8h-8zM112 72h8v8h-8zM136 72h8v8h-8zM160 72h8v8h-8zM176 72h8v8h-8zM184 72h8v8h-8zM192 72h8v8h-8zM200 72h8v8h-8zM208 72h8v8h-8zM240 72h8v8h-8zM264 72h8v8h-8zM272 72h8v8h-8zM280 72h8v8h-8zM304 72h8v8h-8zM352 72h8v8h-8zM32 80h8v8h-8zM40 80h8v8h-8zM48 80h8v8h-8zM56 80h8v8h-8zM64 80h8v8h-8zM72 80h8v8h-8zM80 80h8v8h-8zM96 80h8v8h-8zM112 80h8v8h-8zM128 80h8v8h-8zM144 80h8v8h-8zM160 80h8v8h-8zM176 80h8v8h-8zM192 80h8v8h-8zM208 80h8v8h-8zM224 80h8v8h-8zM240 80h8v8h-8zM256 80h8v8h-8zM272 80h8v8h-8zM288 80h8v8h-8zM304 80h8v8h-8zM312 80h8v8h-8zM320 80h8v8h-8zM328 80h8v8h-8zM336 80h8v8h-8zM344 80h8v8h-8zM352 80h8v8h-8zM96 88h8v8h-8zM120 88h8v8h-8zM152 88h8v8h-8zM160 88h8v8h-8zM168 88h8v8h-8zM184 88h8v8h-8zM200 88h8v8h-8zM208 88h8v8h-8zM216 88h8v8h-8zM240 88h8v8h-8zM248 88h8v8h-8zM264 88h8v8h-8zM272 88h8v8h-8zM32 96h8v8h-8zM64 96h8v8h-8zM80 96h8v8h-8zM88 96h8v8h-8zM96 96h8v8h-8zM104 96h8v8h-8zM152 96h8v8h-8zM168 96h8v8h-8zM184 96h8v8h-8zM192 96h8v8h-8zM200 96h8v8h-8zM208 96h8v8h-8zM224 96h8v8h-8zM264 96h8v8h-8zM280 96h8v8h-8zM296 96h8v8h-8zM304 96h8v8h-8zM312 96h8v8h-8zM320 96h8v8h-8zM328 96h8v8h-8zM352 96h8v8h-8zM40 104h8v8h-8zM64 104h8v8h-8zM72 104h8v8h-8zM96 104h8v8h-8zM112 104h8v8h-8zM120 104h8v8h-8zM136 104h8v8h-8zM144 104h8v8h-8zM152 104h8v8h-8zM160 104h8v8h-8zM176 104h8v8h-8zM216 104h8v8h-8zM224 104h8v8h-8zM232 104h8v8h-8zM240 104h8v8h-8zM248 104h8v8h-8zM256 104h8v8h-8zM264 104h8v8h-8zM272 104h8v8h-8zM304 104h8v8h-8zM312 104h8v8h-8zM320 104h8v8h-8zM328 104h8v8h-8zM344 104h8v8h-8zM32 112h8v8h-8zM48 112h8v8h-8zM64 112h8v8h-8zM80 112h8v8h-8zM88 112h8v8h-8zM112 112h8v8h-8zM128 112h8v8h-8zM152 112h8v8h-8zM176 112h8v8h-8zM192 112h8v8h-8zM200 112h8v8h-8zM216 112h8v8h-8zM224 112h8v8h-8zM248 112h8v8h-8zM256 112h8v8h-8zM264 112h8v8h-8zM288 112h8v8h-8zM296 112h8v8h-8zM304 112h8v8h-8zM352 112h8v8h-8zM32 120h8v8h-8zM48 120h8v8h-8zM56 120h8v8h-8zM64 120h8v8h-8zM104 120h8v8h-8zM128 120h8v8h-8zM136 120h8v8h-8zM144 120h8v8h-8zM168 120h8v8h-8zM184 120h8v8h-8zM200 120h8v8h-8zM216 120h8v8h-8zM224 120h8v8h-8zM248 120h8v8h-8zM264 120h8v8h-8zM272 120h8v8h-8zM280 120h8v8h-8zM288 120h8v8h-8zM304 120h8v8h-8zM328 120h8v8h-8zM352 120h8v8h-8zM48 128h8v8h-8zM64 128h8v8h-8zM80 128h8v8h-8zM88 128h8v8h-8zM96 128h8v8h-8zM120 128h8v8h-8zM128 128h8v8h-8zM136 128h8v8h-8zM168 128h8v8h-8zM184 128h8v8h-8zM192 128h8v8h-8zM200 128h8v8h-8zM264 128h8v8h-8zM272 128h8v8h-8zM288 128h8v8h-8zM296 128h8v8h-8zM312 128h8v8h-8zM344 128h8v8h-8zM40 136h8v8h-8zM48 136h8v8h-8zM72 136h8v8h-8zM88 136h8v8h-8zM104 136h8v8h-8zM112 136h8v8h-8zM128 136h8v8h-8zM136 136h8v8h-8zM160 136h8v8h-8zM168 136h8v8h-8zM184 136h8v8h-8zM208 136h8v8h-8zM224 136h8v8h-8zM256 136h8v8h-8zM280 136h8v8h-8zM312 136h8v8h-8zM320 136h8v8h-8zM328 136h8v8h-8zM336 136h8v8h-8zM344 136h8v8h-8zM352 136h8v8h-8zM32 144h8v8h-8zM80 144h8v8h-8zM88 144h8v8h-8zM96 144h8v8h-8zM128 144h8v8h-8zM152 144h8v8h-8zM168 144h8v8h-8zM176 144h8v8h-8zM184 144h8v8h-8zM216 144h8v8h-8zM224 144h8v8h-8zM240 144h8v8h-8zM256 144h8v8h-8zM272 144h8v8h-8zM288 144h8v8h-8zM296 144h8v8h-8zM304 144h8v8h-8zM320 144h8v8h-8zM328 144h8v8h-8zM336 144h8v8h-8zM352 144h8v8h-8zM32 152h8v8h-8zM48 152h8v8h-8zM56 152h8v8h-8zM96 152h8v8h-8zM136 152h8v8h-8zM160 152h8v8h-8zM168 152h8v8h-8zM176 152h8v8h-8zM184 152h8v8h-8zM192 152h8v8h-8zM200 152h8v8h-8zM208 152h8v8h-8zM216 152h8v8h-8zM264 152h8v8h-8zM288 152h8v8h-8zM312 152h8v8h-8zM328 152h8v8h-8zM352 152h8v8h-8zM72 160h8v8h-8zM80 160h8v8h-8zM88 160h8v8h-8zM152 160h8v8h-8zM160 160h8v8h-8zM192 160h8v8h-8zM200 160h8v8h-8zM208 160h8v8h-8zM240 160h8v8h-8zM248 160h8v8h-8zM264 160h8v8h-8zM288 160h8v8h-8zM312 160h8v8h-8zM344 160h8v8h-8zM32 168h8v8h-8zM40 168h8v8h-8zM48 168h8v8h-8zM56 168h8v8h-8zM72 168h8v8h-8zM88 168h8v8h-8zM104 168h8v8h-8zM112 168h8v8h-8zM128 168h8v8h-8zM136 168h8v8h-8zM144 168h8v8h-8zM160 168h8v8h-8zM168 168h8v8h-8zM216 168h8v8h-8zM240 168h8v8h-8zM248 168h8v8h-8zM256 168h8v8h-8zM264 168h8v8h-8zM272 168h8v8h-8zM288 168h8v8h-8zM296 168h8v8h-8zM304 168h8v8h-8zM312 168h8v8h-8zM320 168h8v8h-8zM328 168h8v8h-8zM336 168h8v8h-8zM352 168h8v8h-8zM32 176h8v8h-8zM40 176h8v8h-8zM48 176h8v8h-8zM56 176h8v8h-8zM80 176h8v8h-8zM96 176h8v8h-8zM104 176h8v8h-8zM128 176h8v8h-8zM136 176h8v8h-8zM152 176h8v8h-8zM176 176h8v8h-8zM200 176h8v8h-8zM208 176h8v8h-8zM216 176h8v8h-8zM232 176h8v8h-8zM240 176h8v8h-8zM248 176h8v8h-8zM272 176h8v8h-8zM288 176h8v8h-8zM296 176h8v8h-8zM304 176h8v8h-8zM312 176h8v8h-8zM336 176h8v8h-8zM352 176h8v8h-8zM32 184h8v8h-8zM48 184h8v8h-8zM56 184h8v8h-8zM72 184h8v8h-8zM88 184h8v8h-8zM96 184h8v8h-8zM104 184h8v8h-8zM120 184h8v8h-8zM128 184h8v8h-8zM136 184h8v8h-8zM144 184h8v8h-8zM152 184h8v8h-8zM160 184h8v8h-8zM192 184h8v8h-8zM200 184h8v8h-8zM216 184h8v8h-8zM232 184h8v8h-8zM256 184h8v8h-8zM264 184h8v8h-8zM272 184h8v8h-8zM296 184h8v8h-8zM312 184h8v8h-8zM344 184h8v8h-8zM352 184h8v8h-8zM32 192h8v8h-8zM48 192h8v8h-8zM56 192h8v8h-8zM64 192h8v8h-8zM72 192h8v8h-8zM80 192h8v8h-8zM112 192h8v8h-8zM120 192h8v8h-8zM128 192h8v8h-8zM144 192h8v8h-8zM152 192h8v8h-8zM184 192h8v8h-8zM224 192h8v8h-8zM232 192h8v8h-8zM256 192h8v8h-8zM288 192h8v8h-8zM296 192h8v8h-8zM320 192h8v8h-8zM328 192h8v8h-8zM344 192h8v8h-8zM40 200h8v8h-8zM56 200h8v8h-8zM72 200h8v8h-8zM88 200h8v8h-8zM112 200h8v8h-8zM120 200h8v8h-8zM128 200h8v8h-8zM136 200h8v8h-8zM144 200h8v8h-8zM168 200h8v8h-8zM176 200h8v8h-8zM192 200h8v8h-8zM200 200h8v8h-8zM208 200h8v8h-8zM232 200h8v8h-8zM240 200h8v8h-8zM248 200h8v8h-8zM256 200h8v8h-8zM264 200h8v8h-8zM272 200h8v8h-8zM304 200h8v8h-8zM312 200h8v8h-8zM320 200h8v8h-8zM328 200h8v8h-8zM336 200h8v8h-8zM352 200h8v8h-8zM32 208h8v8h-8zM48 208h8v8h-8zM64 208h8v8h-8zM80 208h8v8h-8zM88 208h8v8h-8zM104 208h8v8h-8zM112 208h8v8h-8zM120 208h8v8h-8zM128 208h8v8h-8zM136 208h8v8h-8zM144 208h8v8h-8zM152 208h8v8h-8zM160 208h8v8h-8zM176 208h8v8h-8zM192 208h8v8h-8zM200 208h8v8h-8zM208 208h8v8h-8zM216 208h8v8h-8zM224 208h8v8h-8zM248 208h8v8h-8zM256 208h8v8h-8zM272 208h8v8h-8zM312 208h8v8h-8zM336 208h8v8h-8zM352 208h8v8h-8zM48 216h8v8h-8zM56 216h8v8h-8zM72 216h8v8h-8zM120 216h8v8h-8zM128 216h8v8h-8zM136 216h8v8h-8zM152 216h8v8h-8zM168 216h8v8h-8zM176 216h8v8h-8zM192 216h8v8h-8zM200 216h8v8h-8zM240 216h8v8h-8zM248 216h8v8h-8zM264 216h8v8h-8zM272 216h8v8h-8zM288 216h8v8h-8zM296 216h8v8h-8zM304 216h8v8h-8zM312 216h8v8h-8zM344 216h8v8h-8zM352 216h8v8h-8zM32 224h8v8h-8zM80 224h8v8h-8zM96 224h8v8h-8zM104 224h8v8h-8zM136 224h8v8h-8zM144 224h8v8h-8zM152 224h8v8h-8zM160 224h8v8h-8zM168 224h8v8h-8zM184 224h8v8h-8zM200 224h8v8h-8zM208 224h8v8h-8zM224 224h8v8h-8zM264 224h8v8h-8zM288 224h8v8h-8zM296 224h8v8h-8zM328 224h8v8h-8zM344 224h8v8h-8zM352 224h8v8h-8zM32 232h8v8h-8zM40 232h8v8h-8zM48 232h8v8h-8zM56 232h8v8h-8zM64 232h8v8h-8zM72 232h8v8h-8zM104 232h8v8h-8zM112 232h8v8h-8zM120 232h8v8h-8zM128 232h8v8h-8zM136 232h8v8h-8zM144 232h8v8h-8zM152 232h8v8h-8zM168 232h8v8h-8zM216 232h8v8h-8zM232 232h8v8h-8zM240 232h8v8h-8zM248 232h8v8h-8zM256 232h8v8h-8zM264 232h8v8h-8zM288 232h8v8h-8zM304 232h8v8h-8zM312 232h8v8h-8zM320 232h8v8h-8zM336 232h8v8h-8zM344 232h8v8h-8zM48 240h8v8h-8zM56 240h8v8h-8zM72 240h8v8h-8zM80 240h8v8h-8zM88 240h8v8h-8zM96 240h8v8h-8zM112 240h8v8h-8zM120 240h8v8h-8zM136 240h8v8h-8zM144 240h8v8h-8zM160 240h8v8h-8zM168 240h8v8h-8zM192 240h8v8h-8zM208 240h8v8h-8zM216 240h8v8h-8zM232 240h8v8h-8zM248 240h8v8h-8zM256 240h8v8h-8zM264 240h8v8h-8zM272 240h8v8h-8zM288 240h8v8h-8zM296 240h8v8h-8zM312 240h8v8h-8zM320 240h8v8h-8zM352 240h8v8h-8zM32 248h8v8h-8zM48 248h8v8h-8zM56 248h8v8h-8zM64 248h8v8h-8zM96 248h8v8h-8zM104 248h8v8h-8zM128 248h8v8h-8zM136 248h8v8h-8zM144 248h8v8h-8zM168 248h8v8h-8zM176 248h8v8h-8zM184 248h8v8h-8zM192 248h8v8h-8zM200 248h8v8h-8zM208 248h8v8h-8zM216 248h8v8h-8zM240 248h8v8h-8zM264 248h8v8h-8zM272 248h8v8h-8zM280 248h8v8h-8zM288 248h8v8h-8zM304 248h8v8h-8zM312 248h8v8h-8zM328 248h8v8h-8zM32 256h8v8h-8zM40 256h8v8h-8zM48 256h8v8h-8zM64 256h8v8h-8zM80 256h8v8h-8zM88 256h8v8h-8zM120 256h8v8h-8zM128 256h8v8h-8zM144 256h8v8h-8zM152 256h8v8h-8zM160 256h8v8h-8zM168 256h8v8h-8zM208 256h8v8h-8zM216 256h8v8h-8zM224 256h8v8h-8zM240 256h8v8h-8zM248 256h8v8h-8zM264 256h8v8h-8zM288 256h8v8h-8zM296 256h8v8h-8zM344 256h8v8h-8zM352 256h8v8h-8zM32 264h8v8h-8zM40 264h8v8h-8zM64 264h8v8h-8zM72 264h8v8h-8zM96 264h8v8h-8zM104 264h8v8h-8zM128 264h8v8h-8zM136 264h8v8h-8zM160 264h8v8h-8zM168 264h8v8h-8zM176 264h8v8h-8zM184 264h8v8h-8zM192 264h8v8h-8zM240 264h8v8h-8zM272 264h8v8h-8zM288 264h8v8h-8zM296 264h8v8h-8zM320 264h8v8h-8zM336 264h8v8h-8zM344 264h8v8h-8zM352 264h8v8h-8zM56 272h8v8h-8zM80 272h8v8h-8zM88 272h8v8h-8zM96 272h8v8h-8zM120 272h8v8h-8zM128 272h8v8h-8zM144 272h8v8h-8zM168 272h8v8h-8zM192 272h8v8h-8zM208 272h8v8h-8zM232 272h8v8h-8zM240 272h8v8h-8zM248 272h8v8h-8zM264 272h8v8h-8zM272 272h8v8h-8zM296 272h8v8h-8zM312 272h8v8h-8zM328 272h8v8h-8zM352 272h8v8h-8zM56 280h8v8h-8zM64 280h8v8h-8zM104 280h8v8h-8zM112 280h8v8h-8zM120 280h8v8h-8zM136 280h8v8h-8zM144 280h8v8h-8zM152 280h8v8h-8zM160 280h8v8h-8zM168 280h8v8h-8zM176 280h8v8h-8zM200 280h8v8h-8zM224 280h8v8h-8zM248 280h8v8h-8zM264 280h8v8h-8zM272 280h8v8h-8zM280 280h8v8h-8zM296 280h8v8h-8zM328 280h8v8h-8zM32 288h8v8h-8zM40 288h8v8h-8zM48 288h8v8h-8zM56 288h8v8h-8zM72 288h8v8h-8zM80 288h8v8h-8zM88 288h8v8h-8zM96 288h8v8h-8zM104 288h8v8h-8zM112 288h8v8h-8zM120 288h8v8h-8zM144 288h8v8h-8zM152 288h8v8h-8zM160 288h8v8h-8zM184 288h8v8h-8zM192 288h8v8h-8zM200 288h8v8h-8zM208 288h8v8h-8zM216 288h8v8h-8zM264 288h8v8h-8zM280 288h8v8h-8zM288 288h8v8h-8zM296 288h8v8h-8zM304 288h8v8h-8zM312 288h8v8h-8zM320 288h8v8h-8zM344 288h8v8h-8zM352 288h8v8h-8zM96 296h8v8h-8zM104 296h8v8h-8zM112 296h8v8h-8zM144 296h8v8h-8zM152 296h8v8h-8zM176 296h8v8h-8zM200 296h8v8h-8zM216 296h8v8h-8zM232 296h8v8h-8zM240 296h8v8h-8zM248 296h8v8h-8zM256 296h8v8h-8zM288 296h8v8h-8zM320 296h8v8h-8zM344 296h8v8h-8zM352 296h8v8h-8zM32 304h8v8h-8zM40 304h8v8h-8zM48 304h8v8h-8zM56 304h8v8h-8zM64 304h8v8h-8zM72 304h8v8h-8zM80 304h8v8h-8zM96 304h8v8h-8zM104 304h8v8h-8zM120 304h8v8h-8zM128 304h8v8h-8zM136 304h8v8h-8zM144 304h8v8h-8zM152 304h8v8h-8zM168 304h8v8h-8zM192 304h8v8h-8zM216 304h8v8h-8zM224 304h8v8h-8zM248 304h8v8h-8zM256 304h8v8h-8zM264 304h8v8h-8zM272 304h8v8h-8zM280 304h8v8h-8zM288 304h8v8h-8zM304 304h8v8h-8zM320 304h8v8h-8zM328 304h8v8h-8zM352 304h8v8h-8zM32 312h8v8h-8zM80 312h8v8h-8zM112 312h8v8h-8zM120 312h8v8h-8zM144 312h8v8h-8zM152 312h8v8h-8zM168 312h8v8h-8zM176 312h8v8h-8zM184 312h8v8h-8zM192 312h8v8h-8zM208 312h8v8h-8zM216 312h8v8h-8zM240 312h8v8h-8zM256 312h8v8h-8zM264 312h8v8h-8zM280 312h8v8h-8zM288 312h8v8h-8zM320 312h8v8h-8zM328 312h8v8h-8zM344 312h8v8h-8zM32 320h8v8h-8zM48 320h8v8h-8zM56 320h8v8h-8zM64 320h8v8h-8zM80 320h8v8h-8zM96 320h8v8h-8zM104 320h8v8h-8zM120 320h8v8h-8zM128 320h8v8h-8zM144 320h8v8h-8zM176 320h8v8h-8zM192 320h8v8h-8zM208 320h8v8h-8zM232 320h8v8h-8zM240 320h8v8h-8zM256 320h8v8h-8zM280 320h8v8h-8zM288 320h8v8h-8zM296 320h8v8h-8zM304 320h8v8h-8zM312 320h8v8h-8zM320 320h8v8h-8zM32 328h8v8h-8zM48 328h8v8h-8zM56 328h8v8h-8zM64 328h8v8h-8zM80 328h8v8h-8zM104 328h8v8h-8zM120 328h8v8h-8zM128 328h8v8h-8zM144 328h8v8h-8zM152 328h8v8h-8zM192 328h8v8h-8zM200 328h8v8h-8zM216 328h8v8h-8zM224 328h8v8h-8zM232 328h8v8h-8zM248 328h8v8h-8zM256 328h8v8h-8zM272 328h8v8h-8zM288 328h8v8h-8zM312 328h8v8h-8zM344 328h8v8h-8zM32 336h8v8h-8zM48 336h8v8h-8zM56 336h8v8h-8zM64 336h8v8h-8zM80 336h8v8h-8zM112 336h8v8h-8zM128 336h8v8h-8zM136 336h8v8h-8zM176 336h8v8h-8zM216 336h8v8h-8zM224 336h8v8h-8zM232 336h8v8h-8zM248 336h8v8h-8zM256 336h8v8h-8zM264 336h8v8h-8zM272 336h8v8h-8zM296 336h8v8h-8zM328 336h8v8h-8zM352 336h8v8h-8zM32 344h8v8h-8zM80 344h8v8h-8zM104 344h8v8h-8zM128 344h8v8h-8zM136 344h8v8h-8zM160 344h8v8h-8zM176 344h8v8h-8zM184 344h8v8h-8zM192 344h8v8h-8zM200 344h8v8h-8zM216 344h8v8h-8zM224 344h8v8h-8zM240 344h8v8h-8zM248 344h8v8h-8zM256 344h8v8h-8zM264 344h8v8h-8zM272 344h8v8h-8zM288 344h8v8h-8zM304 344h8v8h-8zM312 344h8v8h-8zM328 344h8v8h-8zM344 344h8v8h-8zM352 344h8v8h-8zM32 352h8v8h-8zM40 352h8v8h-8zM48 352h8v8h-8zM56 352h8v8h-8zM64 352h8v8h-8zM72 352h8v8h-8zM80 352h8v8h-8zM96 352h8v8h-8zM120 352h8v8h-8zM128 352h8v8h-8zM136 352h8v8h-8zM184 352h8v8h-8zM192 352h8v8h-8zM200 352h8v8h-8zM224 352h8v8h-8zM248 352h8v8h-8zM264 352h8v8h-8zM288 352h8v8h-8zM296 352h8v8h-8zM312 352h8v8h-8zM320 352h8v8h-8zM336 352h8v8h-8zM344 352h8v8h-8z" fill="#0a0518"/></svg>